<?xml version="1.0" standalone="no"?>
<!DOCTYPE svg PUBLIC "-//W3C//DTD SVG 20010904//EN"
 "http://www.w3.org/TR/2001/REC-SVG-20010904/DTD/svg10.dtd">
<svg version="1.0" xmlns="http://www.w3.org/2000/svg"
width="500px" height="200px" viewBox="0 0 5000.000000 2000.000000"
 preserveAspectRatio="xMidYMid meet">

<g transform="translate(0.000000,2000.000000) scale(0.100000,-0.100000)"
fill="#000000" stroke="none">
<path fill="#DF3849" d="M9156 18863 c-4 -15 -36 -116 -71 -223 -35 -107 -118 -364 -185 -570
-67 -206 -154 -476 -195 -600 -126 -388 -305 -939 -357 -1100 -27 -85 -53
-166 -58 -180 -5 -14 -66 -200 -135 -415 -70 -214 -166 -511 -215 -660 -48
-148 -111 -342 -140 -430 -44 -138 -206 -638 -329 -1015 l-38 -115 -2806 0
c-2019 0 -2803 -3 -2794 -11 15 -13 199 -147 822 -599 264 -191 527 -383 585
-425 58 -42 368 -268 690 -502 655 -475 2007 -1457 2260 -1641 91 -66 166
-121 168 -122 2 -2 5 6 -86 -275 -39 -118 -125 -384 -192 -590 -67 -206 -152
-469 -190 -585 -38 -115 -95 -293 -128 -395 -33 -102 -119 -367 -192 -590
-198 -610 -247 -761 -380 -1170 -66 -206 -130 -400 -140 -430 -10 -30 -71
-217 -135 -415 -64 -198 -155 -476 -201 -619 -47 -142 -83 -261 -80 -263 3 -4
345 241 666 477 58 42 247 180 420 305 173 126 347 251 385 280 39 28 237 172
440 320 204 147 393 284 420 305 28 20 93 67 145 105 52 38 127 92 165 120 39
28 187 136 330 240 143 104 532 387 865 629 333 242 626 455 652 473 l47 34
67 -48 c36 -26 79 -57 94 -68 16 -11 217 -157 447 -324 230 -168 558 -406 728
-530 171 -123 342 -247 380 -276 39 -29 228 -166 420 -305 193 -140 382 -277
420 -305 39 -29 376 -274 750 -545 374 -271 712 -517 750 -545 201 -149 477
-346 480 -343 8 8 -453 1410 -468 1421 -79 64 -322 254 -492 387 -115 90 -273
214 -350 274 -77 61 -219 171 -315 246 -96 75 -238 185 -315 246 -77 60 -194
152 -260 204 -66 51 -223 175 -350 274 -126 99 -351 275 -500 391 -148 116
-414 323 -590 461 -176 137 -360 281 -410 320 -49 39 -177 139 -283 222 -107
84 -198 152 -203 152 -5 0 -44 -26 -88 -57 -44 -32 -191 -139 -327 -238 -136
-99 -313 -228 -393 -286 -653 -473 -933 -677 -976 -709 -93 -69 -670 -487
-692 -501 -12 -7 -25 -10 -28 -7 -6 6 74 259 285 903 38 116 123 379 190 585
67 206 152 470 190 585 38 116 114 352 171 525 56 173 104 320 106 326 4 12
-77 72 -1092 809 -546 396 -774 562 -1219 887 -93 67 -171 129 -174 136 -3 9
310 12 1540 12 l1544 0 107 333 c60 182 141 433 182 557 40 124 126 387 190
585 154 474 386 1189 436 1343 23 67 44 122 49 122 7 0 35 -84 287 -860 191
-591 263 -812 283 -870 11 -30 74 -224 140 -430 67 -206 151 -466 188 -578
l66 -202 85 5 c48 3 300 14 561 25 457 19 571 24 800 35 58 3 211 10 340 15
129 6 492 21 805 35 314 14 829 36 1145 50 316 13 622 27 680 30 58 3 267 12
465 20 198 9 509 22 690 30 506 23 751 33 1375 60 316 14 620 27 675 30 55 3
260 12 455 20 195 9 456 20 580 25 124 6 378 17 565 25 722 31 1504 65 1600
70 55 3 363 16 685 30 322 13 630 27 685 30 55 3 208 10 340 15 395 16 1145
49 1375 60 118 6 429 19 690 30 261 11 570 25 685 30 116 5 320 15 455 20 135
6 499 22 810 35 892 40 1857 82 2740 119 448 20 912 40 1030 46 118 6 424 19
680 30 256 11 562 25 680 30 118 5 323 14 455 20 132 5 393 17 580 25 187 8
444 19 570 25 698 30 908 40 911 42 1 2 -5267 2 -11707 0 l-11709 -2 -11 27
c-5 15 -87 263 -180 552 -94 290 -181 558 -194 596 -12 39 -68 212 -124 385
-56 173 -110 340 -121 370 -10 30 -71 217 -135 415 -64 198 -149 461 -190 585
-72 221 -263 809 -372 1145 -60 185 -163 503 -223 685 -21 63 -70 216 -110
340 -40 124 -76 229 -80 233 -4 5 -10 -4 -14 -20z"/>
<path  d="M14330 11663 l-500 -456 -35 -111 c-82 -265 -1016 -3313 -1022 -3333
l-5 -23 372 0 372 0 189 121 c104 67 193 126 198 133 5 6 203 646 441 1421
238 776 435 1415 439 1422 3 6 59 59 124 117 l118 106 874 0 c481 0 876 -3
878 -7 2 -5 -67 -242 -154 -528 -87 -286 -155 -523 -151 -526 4 -3 133 -41
287 -85 l280 -79 -1136 -5 -1136 -5 364 -525 365 -525 293 -5 293 -5 -154
-505 c-85 -278 -154 -508 -154 -512 0 -5 167 -8 371 -8 l371 0 189 121 c104
67 193 126 198 133 5 6 275 879 600 1940 501 1635 589 1931 578 1946 -7 10
-61 68 -120 129 l-107 111 -1510 0 -1509 0 -501 -457z"/>
<path  d="M18788 11997 c-102 -67 -189 -125 -192 -128 -7 -7 -656 -2136 -656
-2153 0 -6 46 -80 102 -163 l103 -153 1343 0 c738 0 1342 -4 1342 -8 0 -5 -27
-100 -60 -212 -33 -112 -59 -205 -57 -206 1 -1 128 -38 282 -82 l280 -81
-1277 0 -1276 -1 -689 -526 c-378 -290 -692 -531 -697 -535 -6 -5 810 -9 1865
-9 l1875 0 199 151 c110 83 204 154 208 159 5 4 156 493 337 1085 l328 1078
-117 121 -116 121 -1346 5 -1346 5 88 288 c49 158 91 292 94 298 4 5 513 9
1349 9 l1344 0 202 153 203 154 103 344 c57 189 108 359 113 377 l9 32 -1117
0 -1118 0 -494 -379 c-272 -209 -495 -378 -496 -377 -1 1 43 150 98 332 55
181 106 350 114 377 l14 47 -377 -1 -377 -1 -187 -121z"/>
<path  d="M23331 12023 c-16 -54 -59 -197 -96 -318 -36 -121 -142 -465 -235
-765 -93 -300 -229 -745 -304 -990 -74 -245 -192 -627 -261 -850 -69 -223
-173 -563 -232 -757 l-106 -352 119 -125 119 -125 372 0 c204 -1 374 2 377 7
2 4 57 181 121 392 64 212 177 579 250 815 74 237 188 610 255 830 67 220 188
616 270 880 151 486 357 1162 362 1189 2 8 -50 71 -115 140 l-118 126 -374 0
-374 0 -30 -97z"/>
<path  d="M25285 11662 l-500 -457 -524 -1706 c-288 -939 -526 -1718 -528
-1733 l-5 -26 370 0 371 0 196 126 195 126 23 77 c13 42 210 683 438 1425
l414 1349 121 108 122 109 876 0 c611 0 876 -3 876 -11 0 -5 -70 -242 -156
-526 -85 -284 -152 -519 -147 -523 4 -4 116 -37 248 -75 132 -37 256 -73 275
-79 26 -8 -250 -12 -1098 -16 l-1133 -5 366 -527 366 -528 290 0 c167 0 289
-4 289 -9 0 -5 -67 -231 -150 -501 -82 -271 -150 -499 -150 -506 0 -12 62 -14
370 -14 l369 0 196 126 195 126 29 97 c338 1099 1151 3757 1153 3767 2 7 -50
69 -115 138 l-118 126 -1512 0 -1512 -1 -500 -457z"/>
<path  d="M30695 12108 c-3 -7 -54 -177 -114 -377 l-109 -364 105 -154 104
-153 596 0 595 0 -6 -22 c-3 -13 -208 -689 -456 -1503 l-450 -1480 107 -158
107 -157 374 2 375 3 428 1395 c236 767 429 1401 429 1409 0 7 -76 123 -170
257 -93 133 -170 245 -170 248 0 3 449 6 998 6 l998 0 113 368 c63 202 114
370 115 373 0 4 -48 77 -108 163 l-109 156 -1874 0 c-1490 0 -1875 -3 -1878
-12z"/>
<path d="M35375 11553 c-341 -311 -623 -570 -626 -577 -6 -9 -839 -2713 -889
-2882 l-12 -41 83 -119 c45 -66 96 -136 112 -156 l29 -38 1870 0 c1222 0 1869
3 1866 10 -1 5 -167 246 -367 535 l-365 525 -1270 1 -1271 1 325 80 c179 44
327 82 329 84 2 1 34 101 71 221 l68 218 629 5 628 5 684 525 685 525 -1445 5
-1444 5 335 85 334 85 225 203 226 202 795 0 795 1 683 523 c375 288 685 526
689 530 3 3 -704 6 -1573 5 l-1579 0 -620 -566z"/>
<path d="M39790 11459 c-399 -363 -739 -674 -757 -692 -29 -29 -64 -137 -443
-1371 l-411 -1339 55 -81 c31 -45 80 -115 109 -156 l53 -75 1873 -3 c1549 -2
1872 0 1868 11 -3 7 -168 248 -367 535 l-363 522 -1270 2 -1271 3 331 79 331
79 11 36 c6 20 102 336 213 704 l201 667 375 340 375 340 638 0 638 0 688 526
c378 290 690 528 692 530 2 2 -637 4 -1420 4 l-1424 -1 -725 -660z"/>
<path  d="M43717 12113 c-3 -5 -53 -168 -112 -363 -59 -195 -163 -535 -232
-755 -68 -220 -185 -600 -259 -845 -75 -245 -209 -683 -299 -975 -91 -291
-209 -677 -263 -856 l-98 -326 120 -127 121 -127 372 1 371 0 21 63 c11 34
180 586 376 1227 195 641 359 1173 363 1184 6 15 65 -65 297 -398 l289 -416
549 0 549 0 -7 -27 c-3 -16 -100 -332 -214 -703 l-208 -675 120 -127 119 -128
374 0 373 0 35 113 c19 61 65 211 101 332 36 121 142 465 235 765 93 300 214
696 270 880 56 184 177 580 270 880 93 300 210 683 261 851 l93 307 -120 126
-119 126 -375 -2 -375 -3 -227 -740 c-125 -407 -225 -742 -223 -744 3 -2 129
-39 281 -82 152 -43 279 -80 282 -84 3 -3 -571 -5 -1276 -5 l-1281 0 9 28 c10
29 390 1270 410 1339 l13 42 -119 125 -119 126 -372 0 c-204 0 -374 -3 -376
-7z"/>
<path  d="M14172 5533 l-244 -797 116 -170 116 -171 -527 -3 -528 -3 -204 -157
-203 -157 -279 -904 -278 -903 107 -154 107 -154 1592 0 1592 0 -255 368
c-141 202 -306 440 -367 529 l-112 163 -682 0 c-376 0 -683 3 -683 8 0 4 19
70 43 147 l43 140 674 3 675 2 455 -680 455 -679 684 -1 c543 0 682 3 678 12
-3 7 -462 712 -1021 1566 -559 854 -1016 1560 -1016 1568 0 9 10 49 22 90 l21
74 499 0 c274 0 498 -3 498 -6 0 -4 -39 -132 -86 -285 l-85 -279 107 -155 108
-155 377 0 378 0 26 88 c71 233 457 1490 464 1514 8 24 -2 42 -98 180 l-108
153 -1409 2 -1409 3 -243 -797z"/>
<path  d="M19072 5955 l-112 -376 105 -154 106 -155 596 0 c472 0 594 -3 590
-12 -2 -7 -208 -683 -457 -1501 l-453 -1489 104 -154 104 -154 379 3 379 2
430 1402 430 1402 -172 245 c-94 134 -171 247 -171 250 0 3 449 7 997 8 l998
3 112 365 c62 201 112 372 110 380 -2 8 -51 81 -107 163 l-104 147 -1876 0
-1875 0 -113 -375z"/>
<path  d="M23607 6317 c4 -8 170 -246 367 -530 l359 -517 970 0 c918 0 969 -1
965 -17 -3 -10 -61 -201 -128 -425 l-123 -408 -969 0 c-919 0 -969 1 -964 18
72 228 116 387 112 399 -3 8 -51 79 -107 159 l-101 144 -377 0 -377 0 -474
-1547 c-260 -852 -479 -1567 -486 -1591 l-13 -42 532 0 532 0 164 543 c91 298
175 574 187 613 l21 71 -276 78 c-152 43 -283 82 -291 86 -8 5 165 8 385 6
l400 -2 464 -697 463 -698 739 0 738 0 -455 687 c-251 377 -458 692 -461 700
-4 11 87 13 519 13 l525 0 198 152 c108 84 201 161 206 173 12 29 712 2318
712 2330 0 6 -48 79 -107 163 l-107 152 -1875 0 c-1560 0 -1874 -2 -1867 -13z"/>
<path  d="M28404 5875 l-499 -455 -531 -1727 -530 -1728 378 -3 377 -2 188 121
c103 67 189 122 190 123 1 0 193 626 427 1391 235 765 434 1408 442 1430 11
30 46 67 131 143 l117 102 878 0 c483 0 878 -3 878 -7 0 -4 -70 -240 -156
-525 -86 -285 -154 -521 -151 -524 3 -3 130 -41 284 -85 153 -43 280 -80 283
-81 3 -2 -507 -5 -1133 -8 l-1137 -5 366 -527 366 -528 289 0 c159 0 289 -3
289 -7 0 -5 -69 -233 -153 -508 l-153 -500 378 -3 377 -2 188 121 c103 67 189
122 190 123 4 3 1183 3858 1183 3870 0 8 -52 68 -116 135 l-116 121 -1513 0
-1512 0 -499 -455z"/>
<path d="M32807 6317 c4 -8 170 -246 367 -530 l359 -517 968 0 c533 0 969 -3
969 -7 -1 -5 -92 -306 -203 -671 l-202 -662 -500 -455 -500 -454 -919 0 c-506
-1 -917 1 -915 3 2 1 150 38 329 81 179 43 328 81 333 85 9 8 528 1692 524
1702 -1 4 -53 62 -115 128 l-113 120 -378 0 -377 0 -437 -1427 c-241 -786
-437 -1435 -437 -1443 1 -8 47 -80 103 -160 l103 -145 1244 -2 1245 -2 880
800 880 799 376 1230 376 1230 -109 155 -109 155 -1875 0 c-1560 0 -1874 -2
-1867 -13z"/>
<path  d="M37447 6323 c-3 -5 -46 -145 -97 -313 -50 -168 -167 -550 -260 -850
-93 -300 -223 -725 -290 -945 -67 -220 -181 -593 -255 -830 -254 -817 -357
-1167 -348 -1186 4 -9 56 -67 115 -128 l108 -111 377 0 378 0 89 298 c49 163
163 536 253 827 90 292 216 701 279 910 64 209 185 603 269 875 178 573 365
1190 365 1205 0 6 -52 66 -116 133 l-116 122 -373 0 c-206 0 -376 -3 -378 -7z"/>
<path  d="M39170 6327 c0 -2 -283 -930 -630 -2062 l-630 -2058 116 -123 116
-124 777 0 776 0 1070 1644 c589 904 1071 1643 1072 1642 2 -1 -220 -731 -492
-1622 -273 -890 -498 -1629 -501 -1641 l-6 -23 378 0 379 0 189 123 188 122
594 1938 594 1938 -117 125 -118 124 -771 0 -770 0 -1074 -1645 c-591 -904
-1075 -1643 -1076 -1642 -2 2 206 686 462 1521 l464 1517 -117 125 -118 124
-377 0 c-208 0 -378 -2 -378 -3z"/>
<path  d="M43935 6178 c-109 -84 -202 -160 -206 -168 -5 -8 -162 -518 -349
-1132 -342 -1123 -559 -1831 -716 -2335 -52 -166 -82 -278 -77 -286 4 -7 53
-77 107 -155 l100 -142 911 0 911 0 563 431 c310 237 565 429 567 427 1 -2
-55 -193 -126 -423 -71 -231 -130 -423 -130 -427 0 -5 170 -8 378 -8 l377 0
189 123 189 123 139 454 c76 250 216 704 309 1009 l170 555 -55 80 c-31 45
-80 115 -109 156 l-53 75 -1198 3 c-1005 2 -1197 0 -1193 -11 3 -8 168 -249
367 -536 l362 -521 289 0 c203 0 289 -3 289 -11 0 -11 -74 -262 -111 -376
l-21 -63 -1276 1 -1277 1 327 82 c180 44 332 86 337 91 5 6 136 424 291 930
155 506 297 971 316 1033 l35 112 970 0 970 0 682 522 c375 287 686 525 692
530 5 4 -835 8 -1867 8 l-1875 0 -198 -152z"/>
</g>
</svg>
